# xmcd CD database file
#
# Track frame offsets:
#	150
#	18062
#	39313
#	60611
#	78012
#	95490
#	106353
#	129069
#	142937
#	158022
#	177233
#	198960
#
# Disc length: 2954 seconds
#
# Revision: 0
# Processed by: cddbd v1.5.2PL0 Copyright (c) Steve Scherf et al.
# Submitted via: CDex 1.70beta2
#
DISCID=820b880c
DTITLE=Karl Morgan - Talkin' With The Hands
DYEAR=2007
DGENRE=Blues
TTITLE0=Your Good Man
TTITLE1=Natural Condition
TTITLE2=Nothing From Nothing Grows
TTITLE3=Hold Me Where I Lay
TTITLE4=Sunny
TTITLE5=Sweetness
TTITLE6=Cult Of The Self
TTITLE7=Mother's Child
TTITLE8=The Lowdown
TTITLE9=Talkin' With The Hands
TTITLE10=Love In Your Space
TTITLE11=Break Your Mind
EXTD=YEAR: 2007
EXTT0=
EXTT1=
EXTT2=
EXTT3=
EXTT4=
EXTT5=
EXTT6=
EXTT7=
EXTT8=
EXTT9=
EXTT10=
EXTT11=
PLAYORDER=
